<mxfile host="app.diagrams.net" modified="2024-02-06T07:39:00.741Z" agent="Mozilla/5.0 (Windows NT 10.0; Win64; x64) AppleWebKit/537.36 (KHTML, like Gecko) Chrome/121.0.0.0 Safari/537.36" etag="KAGY3Vu8gbkk9lQTXQh5" version="23.1.1" type="github">
  <diagram name="Page-1" id="rniJkdAribgbxauUZxt4">
    <mxGraphModel dx="1257" dy="620" grid="1" gridSize="10" guides="1" tooltips="1" connect="1" arrows="1" fold="1" page="1" pageScale="1" pageWidth="850" pageHeight="1100" math="0" shadow="0">
      <root>
        <mxCell id="0" />
        <mxCell id="1" parent="0" />
        <mxCell id="MQ3NOV9Z6MG319Miepqh-3" value="Pengguna" style="rounded=0;whiteSpace=wrap;html=1;" vertex="1" parent="1">
          <mxGeometry x="340" y="370" width="200" height="60" as="geometry" />
        </mxCell>
        <mxCell id="MQ3NOV9Z6MG319Miepqh-12" style="edgeStyle=orthogonalEdgeStyle;rounded=0;orthogonalLoop=1;jettySize=auto;html=1;entryX=0;entryY=0.5;entryDx=0;entryDy=0;" edge="1" parent="1" source="MQ3NOV9Z6MG319Miepqh-5" target="MQ3NOV9Z6MG319Miepqh-3">
          <mxGeometry relative="1" as="geometry" />
        </mxCell>
        <mxCell id="MQ3NOV9Z6MG319Miepqh-5" value="Email" style="ellipse;whiteSpace=wrap;html=1;" vertex="1" parent="1">
          <mxGeometry x="90" y="370" width="120" height="60" as="geometry" />
        </mxCell>
        <mxCell id="MQ3NOV9Z6MG319Miepqh-13" style="edgeStyle=orthogonalEdgeStyle;rounded=0;orthogonalLoop=1;jettySize=auto;html=1;entryX=0;entryY=0;entryDx=0;entryDy=0;" edge="1" parent="1" source="MQ3NOV9Z6MG319Miepqh-6" target="MQ3NOV9Z6MG319Miepqh-3">
          <mxGeometry relative="1" as="geometry" />
        </mxCell>
        <mxCell id="MQ3NOV9Z6MG319Miepqh-6" value="Password" style="ellipse;whiteSpace=wrap;html=1;" vertex="1" parent="1">
          <mxGeometry x="180" y="190" width="120" height="60" as="geometry" />
        </mxCell>
        <mxCell id="MQ3NOV9Z6MG319Miepqh-14" style="edgeStyle=orthogonalEdgeStyle;rounded=0;orthogonalLoop=1;jettySize=auto;html=1;entryX=1;entryY=0;entryDx=0;entryDy=0;" edge="1" parent="1" source="MQ3NOV9Z6MG319Miepqh-7" target="MQ3NOV9Z6MG319Miepqh-3">
          <mxGeometry relative="1" as="geometry" />
        </mxCell>
        <mxCell id="MQ3NOV9Z6MG319Miepqh-7" value="Nama" style="ellipse;whiteSpace=wrap;html=1;" vertex="1" parent="1">
          <mxGeometry x="480" y="190" width="120" height="60" as="geometry" />
        </mxCell>
        <mxCell id="MQ3NOV9Z6MG319Miepqh-18" style="edgeStyle=orthogonalEdgeStyle;rounded=0;orthogonalLoop=1;jettySize=auto;html=1;entryX=1;entryY=0.5;entryDx=0;entryDy=0;" edge="1" parent="1" source="MQ3NOV9Z6MG319Miepqh-8" target="MQ3NOV9Z6MG319Miepqh-3">
          <mxGeometry relative="1" as="geometry" />
        </mxCell>
        <mxCell id="MQ3NOV9Z6MG319Miepqh-8" value="Foto Profil" style="ellipse;whiteSpace=wrap;html=1;" vertex="1" parent="1">
          <mxGeometry x="650" y="370" width="120" height="60" as="geometry" />
        </mxCell>
        <mxCell id="MQ3NOV9Z6MG319Miepqh-15" style="edgeStyle=orthogonalEdgeStyle;rounded=0;orthogonalLoop=1;jettySize=auto;html=1;entryX=0;entryY=0;entryDx=0;entryDy=0;" edge="1" parent="1" source="MQ3NOV9Z6MG319Miepqh-9" target="MQ3NOV9Z6MG319Miepqh-7">
          <mxGeometry relative="1" as="geometry">
            <Array as="points">
              <mxPoint x="430" y="190" />
              <mxPoint x="498" y="190" />
            </Array>
          </mxGeometry>
        </mxCell>
        <mxCell id="MQ3NOV9Z6MG319Miepqh-9" value="Nama Depan" style="ellipse;whiteSpace=wrap;html=1;" vertex="1" parent="1">
          <mxGeometry x="370" y="60" width="120" height="60" as="geometry" />
        </mxCell>
        <mxCell id="MQ3NOV9Z6MG319Miepqh-16" style="edgeStyle=orthogonalEdgeStyle;rounded=0;orthogonalLoop=1;jettySize=auto;html=1;entryX=0.5;entryY=0;entryDx=0;entryDy=0;" edge="1" parent="1" source="MQ3NOV9Z6MG319Miepqh-10" target="MQ3NOV9Z6MG319Miepqh-7">
          <mxGeometry relative="1" as="geometry">
            <Array as="points">
              <mxPoint x="590" y="190" />
            </Array>
          </mxGeometry>
        </mxCell>
        <mxCell id="MQ3NOV9Z6MG319Miepqh-10" value="Nama Tengah" style="ellipse;whiteSpace=wrap;html=1;" vertex="1" parent="1">
          <mxGeometry x="530" y="60" width="120" height="60" as="geometry" />
        </mxCell>
        <mxCell id="MQ3NOV9Z6MG319Miepqh-17" style="edgeStyle=orthogonalEdgeStyle;rounded=0;orthogonalLoop=1;jettySize=auto;html=1;entryX=1;entryY=0.5;entryDx=0;entryDy=0;" edge="1" parent="1" source="MQ3NOV9Z6MG319Miepqh-11" target="MQ3NOV9Z6MG319Miepqh-7">
          <mxGeometry relative="1" as="geometry">
            <Array as="points">
              <mxPoint x="740" y="220" />
            </Array>
          </mxGeometry>
        </mxCell>
        <mxCell id="MQ3NOV9Z6MG319Miepqh-11" value="Nama Belakang" style="ellipse;whiteSpace=wrap;html=1;" vertex="1" parent="1">
          <mxGeometry x="690" y="60" width="120" height="60" as="geometry" />
        </mxCell>
      </root>
    </mxGraphModel>
  </diagram>
</mxfile>
